<?xml version="1.0" standalone="no"?>
<!DOCTYPE svg PUBLIC "-//W3C//DTD SVG 20010904//EN"
 "http://www.w3.org/TR/2001/REC-SVG-20010904/DTD/svg10.dtd">
<svg version="1.0" xmlns="http://www.w3.org/2000/svg"
 width="512.000000pt" height="512.000000pt" viewBox="0 0 512.000000 512.000000"
 preserveAspectRatio="xMidYMid meet">
<metadata>
Created by potrace 1.11, written by Peter Selinger 2001-2013
</metadata>
<g transform="translate(0.000000,512.000000) scale(0.100000,-0.100000)"
fill="#000000" stroke="none">
<path d="M3075 5111 c-6 -5 -107 -59 -225 -121 -118 -62 -251 -132 -295 -155
-44 -23 -138 -73 -210 -110 -71 -37 -200 -105 -285 -150 -85 -45 -227 -120
-315 -166 -88 -46 -186 -97 -217 -113 -62 -32 -68 -40 -41 -49 10 -3 63 -30
118 -59 55 -30 163 -87 240 -127 77 -41 167 -88 200 -106 33 -18 123 -65 200
-105 77 -40 210 -110 295 -155 85 -45 239 -126 343 -180 103 -54 187 -101 187
-105 0 -3 -24 -18 -52 -33 -50 -25 -159 -82 -383 -201 -55 -29 -163 -86 -240
-126 -77 -40 -162 -85 -190 -100 -27 -15 -108 -58 -180 -95 -71 -37 -170 -89
-220 -115 -49 -26 -144 -76 -210 -110 -66 -35 -121 -64 -123 -65 -2 -2 -4
-387 -5 -856 l-2 -853 90 -46 c50 -26 133 -69 185 -97 52 -28 154 -81 225
-118 72 -38 162 -85 200 -105 169 -89 267 -141 365 -192 280 -146 392 -206
473 -249 l88 -48 52 28 c29 15 106 56 172 91 66 35 147 77 180 95 33 18 128
67 210 110 83 43 164 85 180 95 17 9 91 49 165 87 287 150 397 207 445 233 28
15 87 46 133 69 45 24 82 45 82 49 0 4 -39 28 -88 53 -48 25 -150 78 -227 119
-77 40 -162 85 -190 100 -27 15 -108 58 -180 95 -71 37 -170 89 -220 115 -49
26 -144 76 -210 110 -66 35 -172 91 -235 124 -63 34 -145 77 -182 96 -38 19
-68 37 -68 40 0 3 80 47 178 97 97 51 231 121 297 156 66 35 179 94 250 131
72 38 166 88 210 111 44 23 134 71 200 105 209 109 368 193 420 221 l50 27 0
855 0 855 -38 17 c-21 9 -73 36 -115 59 -42 24 -144 78 -227 121 -82 43 -193
100 -245 128 -52 27 -142 74 -200 105 -58 30 -141 74 -185 97 -44 23 -129 68
-189 99 -59 31 -149 79 -200 105 -124 66 -229 121 -231 121 0 0 -5 -4 -10 -9z"/>
<path d="M647 4171 c-3 -5 -1 -118 2 -131 1 -3 103 -5 228 -5 l228 0 -1 -125
c-1 -210 -15 -222 -272 -225 -115 0 -176 -5 -180 -12 -6 -9 -7 -65 -3 -119 1
-16 354 -10 410 7 109 33 141 114 145 369 2 96 4 105 20 102 75 -13 120 -73
141 -187 3 -16 5 -72 6 -122 l0 -93 50 0 50 0 -2 103 c-4 240 -53 362 -166
418 -47 23 -55 23 -351 25 -166 1 -304 -2 -305 -5z"/>
<path d="M649 3397 c0 -12 -1 -61 -1 -110 l-1 -87 -54 3 c-29 1 -53 -1 -53 -4
0 -4 11 -20 23 -36 13 -15 57 -74 97 -131 40 -56 76 -104 79 -106 3 -2 6 27 6
65 l-1 69 146 0 c131 0 150 2 190 23 81 40 109 107 124 288 l3 46 -48 0 c-30
1 -49 -4 -50 -11 -6 -114 -26 -169 -68 -190 -27 -14 -290 -20 -292 -8 -1 4 -3
48 -4 97 -2 50 -3 95 -4 102 -1 7 -19 11 -46 11 -39 0 -45 -2 -46 -21z"/>
<path d="M462 2777 c-40 -18 -49 -102 -15 -139 36 -40 89 -14 98 47 10 68 -32
115 -83 92z"/>
<path d="M652 2780 c-6 -4 -8 -146 -3 -196 1 -13 82 -64 92 -58 4 2 5 29 4 59
-2 30 0 55 3 56 4 1 108 2 232 3 l225 1 0 68 c1 61 -1 67 -20 68 -71 4 -528 3
-533 -1z"/>
<path d="M393 2387 c-9 -15 1 -214 15 -282 19 -94 71 -200 125 -255 76 -78
167 -111 290 -105 233 11 372 205 381 530 1 55 1 105 -1 110 -2 6 -25 10 -51
10 l-47 -1 -2 -79 c-3 -168 -24 -242 -88 -313 -60 -66 -127 -95 -220 -95 -137
1 -237 76 -280 209 -18 58 -22 93 -24 199 l-1 80 -46 0 c-25 0 -48 -3 -51 -8z"/>
<path d="M844 1683 c-7 -2 -1 -40 17 -111 16 -59 28 -110 29 -114 0 -5 14 -8
31 -8 24 0 29 4 25 18 -11 37 -28 108 -33 131 -12 67 -35 95 -69 84z"/>
<path d="M503 1483 c-30 -12 -39 -123 -14 -186 11 -29 61 -57 90 -52 9 2 22 4
28 4 37 3 53 130 23 192 -18 40 -82 61 -127 42z"/>
<path d="M1049 1441 c-1 -3 0 -21 1 -39 1 -21 -4 -34 -14 -38 -13 -5 -199 35
-289 62 -16 5 -17 -3 -15 -102 2 -86 6 -108 18 -110 8 -1 71 -17 140 -34 69
-18 146 -35 172 -37 43 -5 51 -2 78 25 16 17 30 41 31 54 0 13 3 41 5 63 5 47
-12 129 -30 144 -14 12 -95 22 -97 12z"/>
</g>
</svg>
